<svg width="67" height="20" viewBox="0 0 67 20" fill="none" xmlns="http://www.w3.org/2000/svg">
<path d="M7.08224 19.4003V13.5072L10.8274 1.26758H8.03203L6.60734 6.82614C6.28355 8.09975 5.99214 9.42732 5.77628 10.6577H5.60359C5.48486 9.57843 5.13948 8.16451 4.79411 6.80455L3.41259 1.26758H0.617188L4.30842 13.5072V19.4003H7.08224Z" fill="white"/>
<path d="M14.5998 5.80078C11.3295 5.80078 10.207 7.68961 10.207 11.7586V13.6906C10.207 17.3388 10.9086 19.627 14.5351 19.627C18.1076 19.627 18.8739 17.4467 18.8739 13.6906V11.7586C18.8739 8.12134 18.1399 5.80078 14.5998 5.80078ZM15.9921 14.8887C15.9921 16.6588 15.6791 17.7705 14.5458 17.7705C13.4342 17.7705 13.1212 16.648 13.1212 14.8887V10.5282C13.1212 9.01719 13.337 7.66803 14.5458 7.66803C15.8194 7.66803 15.9921 9.09274 15.9921 10.5282V14.8887Z" fill="white"/>
<path d="M23.4141 19.6061C24.9899 19.6061 25.9721 18.9477 26.7816 17.7605H26.9003L27.019 19.401H29.1667V6.06055H26.3175V16.7783C26.0152 17.3071 25.3136 17.6957 24.6552 17.6957C23.8242 17.6957 23.5652 17.0373 23.5652 15.9364V6.06055H20.7266V16.0659C20.7266 18.2354 21.3527 19.6061 23.4141 19.6061Z" fill="white"/>
<path d="M34.8032 19.4003V3.48021H38.0843V1.26758H28.7051V3.48021H31.9862V19.4003H34.8032Z" fill="white"/>
<path d="M40.2578 19.6061C41.8336 19.6061 42.8157 18.9477 43.6252 17.7605H43.744L43.8627 19.401H46.0105V6.06055H43.1611V16.7783C42.8589 17.3071 42.1574 17.6957 41.499 17.6957C40.6679 17.6957 40.4089 17.0373 40.4089 15.9364V6.06055H37.5703V16.0659C37.5703 18.2354 38.1963 19.6061 40.2578 19.6061Z" fill="white"/>
<path d="M54.0722 5.76785C52.6907 5.76785 51.6977 6.37228 51.0393 7.35447H50.899C50.9854 6.05927 51.0501 4.95836 51.0501 4.0841V0.554688H48.2979L48.2871 12.1467L48.2979 19.3998H50.694L50.899 18.1046H50.9746C51.6114 18.9788 52.5935 19.5293 53.8995 19.5293C56.0689 19.5293 56.9971 17.662 56.9971 13.6901V11.6286C56.9971 7.91572 56.5762 5.76785 54.0722 5.76785ZM54.1693 13.6901C54.1693 16.1726 53.8024 17.6513 52.6475 17.6513C52.1079 17.6513 51.3631 17.3922 51.0285 16.9065V8.97347C51.32 8.21794 51.9675 7.66748 52.6907 7.66748C53.8563 7.66748 54.1693 9.0814 54.1693 11.661V13.6901Z" fill="white"/>
<path d="M67.002 11.4122C67.002 8.19587 66.6782 5.81055 62.9762 5.81055C59.49 5.81055 58.7129 8.13111 58.7129 11.5418V13.8839C58.7129 17.2082 59.4252 19.6259 62.8898 19.6259C65.6312 19.6259 67.0451 18.2552 66.8832 15.6L64.4548 15.4705C64.4224 17.1111 64.0447 17.7803 62.9546 17.7803C61.5838 17.7803 61.5191 16.4743 61.5191 14.5315V13.6249H67.002V11.4122ZM62.9114 7.60224C64.2281 7.60224 64.3253 8.84347 64.3253 10.9481V12.0382H61.5191V10.9481C61.5191 8.86506 61.6054 7.60224 62.9114 7.60224Z" fill="white"/>
</svg>
