<svg width="32" height="22" viewBox="0 0 32 22" fill="none" xmlns="http://www.w3.org/2000/svg">
<path d="M15.6336 21.5866C15.6336 21.5866 25.4387 21.5866 27.8708 20.939C29.2403 20.5721 30.2701 19.5143 30.6316 18.2083C31.2999 15.8122 31.2999 10.7717 31.2999 10.7717C31.2999 10.7717 31.2999 5.76363 30.6316 3.3891C30.2701 2.05073 29.2403 1.01457 27.8708 0.658391C25.4387 -2.57638e-06 15.6336 0 15.6336 0C15.6336 0 5.85024 -2.57638e-06 3.42908 0.658391C2.08155 1.01457 1.02982 2.05073 0.646376 3.3891C1.84023e-07 5.76363 0 10.7717 0 10.7717C0 10.7717 1.84023e-07 15.8122 0.646376 18.2083C1.02982 19.5143 2.08155 20.5721 3.42908 20.939C5.85024 21.5866 15.6336 21.5866 15.6336 21.5866Z" fill="#FF0033"/>
<path d="M20.503 10.7942L12.4082 6.20703V15.3813L20.503 10.7942Z" fill="white"/>
</svg>
